<?xml version="1.0" encoding="UTF-8"?>
<svg id="Layer_2" data-name="Layer 2" xmlns="http://www.w3.org/2000/svg" viewBox="0 0 96.96 86.86">
  <defs>
    <style>
      .cls-1 {
        fill: #2d2a37;
        stroke: #2d2a37;
        stroke-miterlimit: 10;
      }
    </style>
  </defs>
  <g id="Layer_1-2" data-name="Layer 1">
    <path class="cls-1" d="m94.61,65.06l-1.49,1.13c-2.06,1.55-4.97,1.15-6.53-.9l-3.71-4.9c-6.58,15.28-21.76,25.97-39.45,25.97C19.72,86.36.5,67.14.5,43.43S19.72.5,43.43.5c19.93,0,36.69,13.58,41.52,32h-13.92c-4.4-11.54-15.58-19.74-28.67-19.74-16.94,0-30.67,13.73-30.67,30.67s13.73,30.67,30.67,30.67c11.38,0,21.32-6.2,26.62-15.4l-4.64,3.5c-2.05,1.55-4.97,1.15-6.52-.9l-1.13-1.5c-1.55-2.05-1.15-4.97.91-6.52l12.66-9.58,2.73-2.06,6.2-4.69,6.75,8.92.32.42,9.26,12.25c1.55,2.05,1.14,4.97-.91,6.52Z"/>
  </g>
</svg>